# xmcd
#
# Track frame offsets:
#	150
#	11635
#	21092
#	31977
#	44192
#	55187
#	65247
#	76795
#	86132
#	97992
#	108475
#	118895
#	130030
#	141407
#	151160
#	161175
#	174175
#	184957
#	196947
#	207727
#	216882
#	224932
#	237710
#	248692
#
# Disc length: 3483 seconds
#
# Revision: 0
# Processed by: cddbd v1.5.1PL0 Copyright (c) Steve Scherf et al.
# Submitted via: dBpowerAMP V4.0
#
DISCID=6f0d9918
DTITLE=Dee Dee Sharp - The Best Of Dee Dee Sharp
DYEAR=2005
DGENRE=R&B
TTITLE0=Mashed Potato Ime
TTITLE1=Gravy (For My Mashed Potato)
TTITLE2=Baby Cakes
TTITLE3=You Are My Sunshine
TTITLE4=Ride!
TTITLE5=Do The Bird
TTITLE6=Slow Twistin'
TTITLE7=You Ain't Nothin' But A Nothin'
TTITLE8=Just To Hold My Hand
TTITLE9=Rock Me In The Cradle Of Love
TTITLE10=Wild!
TTITLE11=Why Doncha Ask Me
TTITLE12=Never Pick A Pretty
TTITLE13=Willyam, Willyam
TTITLE14=Where Did I Go
TTITLE15=Deep Dark Secret
TTITLE16=There Ain't Nothin' I Wouldn't Do For You
TTITLE17=(That's What) My Mama Said
TTITLE18=Let's Twine
TTITLE19=Standing In The Need Of Love
TTITLE20=It's A Funny Situation
TTITLE21=I Really Love You
TTITLE22=(It's Wonderful) THe Love I Feel For You
TTITLE23=To Know Him Is To Love Him
EXTD=
EXTT0=
EXTT1=
EXTT2=
EXTT3=
EXTT4=
EXTT5=
EXTT6=
EXTT7=
EXTT8=
EXTT9=
EXTT10=
EXTT11=
EXTT12=
EXTT13=
EXTT14=
EXTT15=
EXTT16=
EXTT17=
EXTT18=
EXTT19=
EXTT20=
EXTT21=
EXTT22=
EXTT23=
PLAYORDER=
